<?xml version="1.0" encoding="UTF-8" standalone="no"?>
<!DOCTYPE svg PUBLIC "-//W3C//DTD SVG 1.1//EN" "http://www.w3.org/Graphics/SVG/1.1/DTD/svg11.dtd">
<!-- Created with Vectornator (http://vectornator.io/) -->
<svg height="100%" stroke-miterlimit="10" style="fill-rule:nonzero;clip-rule:evenodd;stroke-linecap:round;stroke-linejoin:round;" version="1.1" viewBox="0 0 3840 2160" width="100%" xml:space="preserve" xmlns="http://www.w3.org/2000/svg" xmlns:xlink="http://www.w3.org/1999/xlink">
<defs/>
<clipPath id="ArtboardFrame">
<rect height="2160" width="3840" x="0" y="0"/>
</clipPath>
<g clip-path="url(#ArtboardFrame)" id="Layer-2">
<path d="M-8.53284 426.479L3863.37 426.479L3863.37 1310.8L-8.53284 1310.8L-8.53284 426.479Z" fill="#001220" fill-rule="nonzero" opacity="1" stroke="none"/>
</g>
<g clip-path="url(#ArtboardFrame)" id="Untitled">
<path d="M0 1267L27.8 1188.7C55.7 1110.3 111.3 953.7 167 973.8C222.7 994 278.3 1191 334 1194.7C389.7 1198.3 445.3 1008.7 501 921.2C556.7 833.7 612.3 848.3 668 887C723.7 925.7 779.3 988.3 835 991.8C890.7 995.3 946.3 939.7 1002 969.7C1057.7 999.7 1113.3 1115.3 1169 1185C1224.7 1254.7 1280.3 1278.3 1336 1260.5C1391.7 1242.7 1447.3 1183.3 1503 1101.8C1558.7 1020.3 1614.3 916.7 1670 889.2C1725.7 861.7 1781.3 910.3 1836.8 969.5C1892.3 1028.7 1947.7 1098.3 2003.2 1114C2058.7 1129.7 2114.3 1091.3 2170 1041C2225.7 990.7 2281.3 928.3 2337 925.3C2392.7 922.3 2448.3 978.7 2504 1018C2559.7 1057.3 2615.3 1079.7 2671 1114.5C2726.7 1149.3 2782.3 1196.7 2838 1159C2893.7 1121.3 2949.3 998.7 3005 1016.2C3060.7 1033.7 3116.3 1191.3 3172 1183C3227.7 1174.7 3283.3 1000.3 3339 965.8C3394.7 931.3 3450.3 1036.7 3506 1084C3561.7 1131.3 3617.3 1120.7 3673 1098.3C3728.7 1076 3784.3 1042 3812.2 1025L3840 1008L3840 2161L3812.2 2161C3784.3 2161 3728.7 2161 3673 2161C3617.3 2161 3561.7 2161 3506 2161C3450.3 2161 3394.7 2161 3339 2161C3283.3 2161 3227.7 2161 3172 2161C3116.3 2161 3060.7 2161 3005 2161C2949.3 2161 2893.7 2161 2838 2161C2782.3 2161 2726.7 2161 2671 2161C2615.3 2161 2559.7 2161 2504 2161C2448.3 2161 2392.7 2161 2337 2161C2281.3 2161 2225.7 2161 2170 2161C2114.3 2161 2058.7 2161 2003.2 2161C1947.7 2161 1892.3 2161 1836.8 2161C1781.3 2161 1725.7 2161 1670 2161C1614.3 2161 1558.7 2161 1503 2161C1447.3 2161 1391.7 2161 1336 2161C1280.3 2161 1224.7 2161 1169 2161C1113.3 2161 1057.7 2161 1002 2161C946.3 2161 890.7 2161 835 2161C779.3 2161 723.7 2161 668 2161C612.3 2161 556.7 2161 501 2161C445.3 2161 389.7 2161 334 2161C278.3 2161 222.7 2161 167 2161C111.3 2161 55.7 2161 27.8 2161L0 2161L0 1267Z" fill="#001122" fill-rule="nonzero" opacity="1" stroke="none"/>
<path d="M0 1201L27.8 1215.7C55.7 1230.3 111.3 1259.7 167 1277.5C222.7 1295.3 278.3 1301.7 334 1329.3C389.7 1357 445.3 1406 501 1386.8C556.7 1367.7 612.3 1280.3 668 1273.3C723.7 1266.3 779.3 1339.7 835 1334.5C890.7 1329.3 946.3 1245.7 1002 1169.8C1057.7 1094 1113.3 1026 1169 1004.8C1224.7 983.7 1280.3 1009.3 1336 1042.3C1391.7 1075.3 1447.3 1115.7 1503 1101.7C1558.7 1087.7 1614.3 1019.3 1670 984.2C1725.7 949 1781.3 947 1836.8 995.5C1892.3 1044 1947.7 1143 2003.2 1148.3C2058.7 1153.7 2114.3 1065.3 2170 1091.7C2225.7 1118 2281.3 1259 2337 1258C2392.7 1257 2448.3 1114 2504 1039.3C2559.7 964.7 2615.3 958.3 2671 940.8C2726.7 923.3 2782.3 894.7 2838 896C2893.7 897.3 2949.3 928.7 3005 995.8C3060.7 1063 3116.3 1166 3172 1210.5C3227.7 1255 3283.3 1241 3339 1242.2C3394.7 1243.3 3450.3 1259.7 3506 1285C3561.7 1310.3 3617.3 1344.7 3673 1336.3C3728.7 1328 3784.3 1277 3812.2 1251.5L3840 1226L3840 2161L3812.2 2161C3784.3 2161 3728.7 2161 3673 2161C3617.3 2161 3561.7 2161 3506 2161C3450.3 2161 3394.7 2161 3339 2161C3283.3 2161 3227.7 2161 3172 2161C3116.3 2161 3060.7 2161 3005 2161C2949.3 2161 2893.7 2161 2838 2161C2782.3 2161 2726.7 2161 2671 2161C2615.3 2161 2559.7 2161 2504 2161C2448.3 2161 2392.7 2161 2337 2161C2281.3 2161 2225.7 2161 2170 2161C2114.3 2161 2058.7 2161 2003.2 2161C1947.7 2161 1892.3 2161 1836.8 2161C1781.3 2161 1725.7 2161 1670 2161C1614.3 2161 1558.7 2161 1503 2161C1447.3 2161 1391.7 2161 1336 2161C1280.3 2161 1224.7 2161 1169 2161C1113.3 2161 1057.7 2161 1002 2161C946.3 2161 890.7 2161 835 2161C779.3 2161 723.7 2161 668 2161C612.3 2161 556.7 2161 501 2161C445.3 2161 389.7 2161 334 2161C278.3 2161 222.7 2161 167 2161C111.3 2161 55.7 2161 27.8 2161L0 2161L0 1201Z" fill="#111c35" fill-rule="nonzero" opacity="1" stroke="none"/>
<path d="M0 1213L27.8 1257C55.7 1301 111.3 1389 167 1391C222.7 1393 278.3 1309 334 1294.7C389.7 1280.3 445.3 1335.7 501 1305.2C556.7 1274.7 612.3 1158.3 668 1129C723.7 1099.7 779.3 1157.3 835 1153C890.7 1148.7 946.3 1082.3 1002 1066.5C1057.7 1050.7 1113.3 1085.3 1169 1101.2C1224.7 1117 1280.3 1114 1336 1094.7C1391.7 1075.3 1447.3 1039.7 1503 1044.2C1558.7 1048.7 1614.3 1093.3 1670 1160C1725.7 1226.7 1781.3 1315.3 1836.8 1295.8C1892.3 1276.3 1947.7 1148.7 2003.2 1100.7C2058.7 1052.7 2114.3 1084.3 2170 1131.7C2225.7 1179 2281.3 1242 2337 1225.5C2392.7 1209 2448.3 1113 2504 1080.8C2559.7 1048.7 2615.3 1080.3 2671 1105.8C2726.7 1131.3 2782.3 1150.7 2838 1218.2C2893.7 1285.7 2949.3 1401.3 3005 1443.2C3060.7 1485 3116.3 1453 3172 1388.5C3227.7 1324 3283.3 1227 3339 1185C3394.7 1143 3450.3 1156 3506 1213C3561.7 1270 3617.3 1371 3673 1352.7C3728.7 1334.3 3784.3 1196.7 3812.2 1127.8L3840 1059L3840 2161L3812.2 2161C3784.3 2161 3728.7 2161 3673 2161C3617.3 2161 3561.7 2161 3506 2161C3450.3 2161 3394.7 2161 3339 2161C3283.3 2161 3227.7 2161 3172 2161C3116.3 2161 3060.7 2161 3005 2161C2949.3 2161 2893.7 2161 2838 2161C2782.3 2161 2726.7 2161 2671 2161C2615.3 2161 2559.7 2161 2504 2161C2448.3 2161 2392.7 2161 2337 2161C2281.3 2161 2225.7 2161 2170 2161C2114.3 2161 2058.7 2161 2003.2 2161C1947.7 2161 1892.3 2161 1836.8 2161C1781.3 2161 1725.7 2161 1670 2161C1614.3 2161 1558.7 2161 1503 2161C1447.3 2161 1391.7 2161 1336 2161C1280.3 2161 1224.7 2161 1169 2161C1113.3 2161 1057.7 2161 1002 2161C946.3 2161 890.7 2161 835 2161C779.3 2161 723.7 2161 668 2161C612.3 2161 556.7 2161 501 2161C445.3 2161 389.7 2161 334 2161C278.3 2161 222.7 2161 167 2161C111.3 2161 55.7 2161 27.8 2161L0 2161L0 1213Z" fill="#272647" fill-rule="nonzero" opacity="1" stroke="none"/>
<path d="M0 1446L27.8 1450C55.7 1454 111.3 1462 167 1466.3C222.7 1470.7 278.3 1471.3 334 1459.7C389.7 1448 445.3 1424 501 1370.2C556.7 1316.3 612.3 1232.7 668 1191.7C723.7 1150.7 779.3 1152.3 835 1182.2C890.7 1212 946.3 1270 1002 1327.2C1057.7 1384.3 1113.3 1440.7 1169 1446C1224.7 1451.3 1280.3 1405.7 1336 1374.5C1391.7 1343.3 1447.3 1326.7 1503 1340.2C1558.7 1353.7 1614.3 1397.3 1670 1426C1725.7 1454.7 1781.3 1468.3 1836.8 1441.7C1892.3 1415 1947.7 1348 2003.2 1330.5C2058.7 1313 2114.3 1345 2170 1324.2C2225.7 1303.3 2281.3 1229.7 2337 1208.2C2392.7 1186.7 2448.3 1217.3 2504 1248.5C2559.7 1279.7 2615.3 1311.3 2671 1294.7C2726.7 1278 2782.3 1213 2838 1198.5C2893.7 1184 2949.3 1220 3005 1271.7C3060.7 1323.3 3116.3 1390.7 3172 1367.3C3227.7 1344 3283.3 1230 3339 1232.5C3394.7 1235 3450.3 1354 3506 1414.7C3561.7 1475.3 3617.3 1477.7 3673 1432.2C3728.7 1386.7 3784.3 1293.3 3812.2 1246.7L3840 1200L3840 2161L3812.2 2161C3784.3 2161 3728.7 2161 3673 2161C3617.3 2161 3561.7 2161 3506 2161C3450.3 2161 3394.7 2161 3339 2161C3283.3 2161 3227.7 2161 3172 2161C3116.3 2161 3060.7 2161 3005 2161C2949.3 2161 2893.7 2161 2838 2161C2782.3 2161 2726.7 2161 2671 2161C2615.3 2161 2559.7 2161 2504 2161C2448.3 2161 2392.7 2161 2337 2161C2281.3 2161 2225.7 2161 2170 2161C2114.3 2161 2058.7 2161 2003.2 2161C1947.7 2161 1892.3 2161 1836.8 2161C1781.3 2161 1725.7 2161 1670 2161C1614.3 2161 1558.7 2161 1503 2161C1447.3 2161 1391.7 2161 1336 2161C1280.3 2161 1224.7 2161 1169 2161C1113.3 2161 1057.7 2161 1002 2161C946.3 2161 890.7 2161 835 2161C779.3 2161 723.7 2161 668 2161C612.3 2161 556.7 2161 501 2161C445.3 2161 389.7 2161 334 2161C278.3 2161 222.7 2161 167 2161C111.3 2161 55.7 2161 27.8 2161L0 2161L0 1446Z" fill="#412e57" fill-rule="nonzero" opacity="1" stroke="none"/>
<path d="M0 1213L27.8 1258.8C55.7 1304.7 111.3 1396.3 167 1422C222.7 1447.7 278.3 1407.3 334 1410.3C389.7 1413.3 445.3 1459.7 501 1480.2C556.7 1500.7 612.3 1495.3 668 1443.8C723.7 1392.3 779.3 1294.7 835 1271.3C890.7 1248 946.3 1299 1002 1360.5C1057.7 1422 1113.3 1494 1169 1525.3C1224.7 1556.7 1280.3 1547.3 1336 1526.7C1391.7 1506 1447.3 1474 1503 1456.7C1558.7 1439.3 1614.3 1436.7 1670 1400.5C1725.7 1364.3 1781.3 1294.7 1836.8 1318.2C1892.3 1341.7 1947.7 1458.3 2003.2 1512.2C2058.7 1566 2114.3 1557 2170 1557.7C2225.7 1558.3 2281.3 1568.7 2337 1561.7C2392.7 1554.7 2448.3 1530.3 2504 1532.3C2559.7 1534.3 2615.3 1562.7 2671 1575C2726.7 1587.3 2782.3 1583.7 2838 1567.7C2893.7 1551.7 2949.3 1523.3 3005 1524.5C3060.7 1525.7 3116.3 1556.3 3172 1509.3C3227.7 1462.3 3283.3 1337.7 3339 1339.7C3394.7 1341.7 3450.3 1470.3 3506 1476C3561.7 1481.7 3617.3 1364.3 3673 1327.5C3728.7 1290.7 3784.3 1334.3 3812.2 1356.2L3840 1378L3840 2161L3812.2 2161C3784.3 2161 3728.7 2161 3673 2161C3617.3 2161 3561.7 2161 3506 2161C3450.3 2161 3394.7 2161 3339 2161C3283.3 2161 3227.7 2161 3172 2161C3116.3 2161 3060.7 2161 3005 2161C2949.3 2161 2893.7 2161 2838 2161C2782.3 2161 2726.7 2161 2671 2161C2615.3 2161 2559.7 2161 2504 2161C2448.3 2161 2392.7 2161 2337 2161C2281.3 2161 2225.7 2161 2170 2161C2114.3 2161 2058.7 2161 2003.2 2161C1947.7 2161 1892.3 2161 1836.8 2161C1781.3 2161 1725.7 2161 1670 2161C1614.3 2161 1558.7 2161 1503 2161C1447.3 2161 1391.7 2161 1336 2161C1280.3 2161 1224.7 2161 1169 2161C1113.3 2161 1057.7 2161 1002 2161C946.3 2161 890.7 2161 835 2161C779.3 2161 723.7 2161 668 2161C612.3 2161 556.7 2161 501 2161C445.3 2161 389.7 2161 334 2161C278.3 2161 222.7 2161 167 2161C111.3 2161 55.7 2161 27.8 2161L0 2161L0 1213Z" fill="#5e3463" fill-rule="nonzero" opacity="1" stroke="none"/>
<path d="M0 1479L27.8 1485.3C55.7 1491.7 111.3 1504.3 167 1535.3C222.7 1566.3 278.3 1615.7 334 1590.8C389.7 1566 445.3 1467 501 1431C556.7 1395 612.3 1422 668 1442C723.7 1462 779.3 1475 835 1497.2C890.7 1519.3 946.3 1550.7 1002 1553.7C1057.7 1556.7 1113.3 1531.3 1169 1547.3C1224.7 1563.3 1280.3 1620.7 1336 1609C1391.7 1597.3 1447.3 1516.7 1503 1458.5C1558.7 1400.3 1614.3 1364.7 1670 1364.2C1725.7 1363.7 1781.3 1398.3 1836.8 1419.5C1892.3 1440.7 1947.7 1448.3 2003.2 1431.7C2058.7 1415 2114.3 1374 2170 1360.5C2225.7 1347 2281.3 1361 2337 1390.2C2392.7 1419.3 2448.3 1463.7 2504 1485.2C2559.7 1506.7 2615.3 1505.3 2671 1504.8C2726.7 1504.3 2782.3 1504.7 2838 1505.8C2893.7 1507 2949.3 1509 3005 1493.2C3060.7 1477.3 3116.3 1443.7 3172 1437.5C3227.7 1431.3 3283.3 1452.7 3339 1478.5C3394.7 1504.3 3450.3 1534.7 3506 1527.8C3561.7 1521 3617.3 1477 3673 1451.8C3728.7 1426.7 3784.3 1420.3 3812.2 1417.2L3840 1414L3840 2161L3812.2 2161C3784.3 2161 3728.7 2161 3673 2161C3617.3 2161 3561.7 2161 3506 2161C3450.3 2161 3394.7 2161 3339 2161C3283.3 2161 3227.7 2161 3172 2161C3116.3 2161 3060.7 2161 3005 2161C2949.3 2161 2893.7 2161 2838 2161C2782.3 2161 2726.7 2161 2671 2161C2615.3 2161 2559.7 2161 2504 2161C2448.3 2161 2392.7 2161 2337 2161C2281.3 2161 2225.7 2161 2170 2161C2114.3 2161 2058.7 2161 2003.2 2161C1947.7 2161 1892.3 2161 1836.8 2161C1781.3 2161 1725.7 2161 1670 2161C1614.3 2161 1558.7 2161 1503 2161C1447.3 2161 1391.7 2161 1336 2161C1280.3 2161 1224.7 2161 1169 2161C1113.3 2161 1057.7 2161 1002 2161C946.3 2161 890.7 2161 835 2161C779.3 2161 723.7 2161 668 2161C612.3 2161 556.7 2161 501 2161C445.3 2161 389.7 2161 334 2161C278.3 2161 222.7 2161 167 2161C111.3 2161 55.7 2161 27.8 2161L0 2161L0 1479Z" fill="#7d3a6a" fill-rule="nonzero" opacity="1" stroke="none"/>
<path d="M0 1599L27.8 1623C55.7 1647 111.3 1695 167 1716.8C222.7 1738.7 278.3 1734.3 334 1709.3C389.7 1684.3 445.3 1638.7 501 1606.7C556.7 1574.7 612.3 1556.3 668 1553.3C723.7 1550.3 779.3 1562.7 835 1577.3C890.7 1592 946.3 1609 1002 1606.7C1057.7 1604.3 1113.3 1582.7 1169 1591.8C1224.7 1601 1280.3 1641 1336 1650.7C1391.7 1660.3 1447.3 1639.7 1503 1645.2C1558.7 1650.7 1614.3 1682.3 1670 1695.3C1725.7 1708.3 1781.3 1702.7 1836.8 1657.5C1892.3 1612.3 1947.7 1527.7 2003.2 1536C2058.7 1544.3 2114.3 1645.7 2170 1644.3C2225.7 1643 2281.3 1539 2337 1495.8C2392.7 1452.7 2448.3 1470.3 2504 1488.7C2559.7 1507 2615.3 1526 2671 1554.5C2726.7 1583 2782.3 1621 2838 1632C2893.7 1643 2949.3 1627 3005 1604.5C3060.7 1582 3116.3 1553 3172 1533.3C3227.7 1513.7 3283.3 1503.3 3339 1527.8C3394.7 1552.3 3450.3 1611.7 3506 1597.8C3561.7 1584 3617.3 1497 3673 1483.5C3728.7 1470 3784.3 1530 3812.2 1560L3840 1590L3840 2161L3812.2 2161C3784.3 2161 3728.7 2161 3673 2161C3617.3 2161 3561.7 2161 3506 2161C3450.3 2161 3394.7 2161 3339 2161C3283.3 2161 3227.7 2161 3172 2161C3116.3 2161 3060.7 2161 3005 2161C2949.3 2161 2893.7 2161 2838 2161C2782.3 2161 2726.7 2161 2671 2161C2615.3 2161 2559.7 2161 2504 2161C2448.3 2161 2392.7 2161 2337 2161C2281.3 2161 2225.7 2161 2170 2161C2114.3 2161 2058.7 2161 2003.2 2161C1947.7 2161 1892.3 2161 1836.8 2161C1781.3 2161 1725.7 2161 1670 2161C1614.3 2161 1558.7 2161 1503 2161C1447.3 2161 1391.7 2161 1336 2161C1280.3 2161 1224.7 2161 1169 2161C1113.3 2161 1057.7 2161 1002 2161C946.3 2161 890.7 2161 835 2161C779.3 2161 723.7 2161 668 2161C612.3 2161 556.7 2161 501 2161C445.3 2161 389.7 2161 334 2161C278.3 2161 222.7 2161 167 2161C111.3 2161 55.7 2161 27.8 2161L0 2161L0 1599Z" fill="#9b406d" fill-rule="nonzero" opacity="1" stroke="none"/>
<path d="M0 1636L27.8 1646.5C55.7 1657 111.3 1678 167 1673.3C222.7 1668.7 278.3 1638.3 334 1648.3C389.7 1658.3 445.3 1708.7 501 1705.3C556.7 1702 612.3 1645 668 1615.8C723.7 1586.7 779.3 1585.3 835 1583C890.7 1580.7 946.3 1577.3 1002 1607.8C1057.7 1638.3 1113.3 1702.7 1169 1723.5C1224.7 1744.3 1280.3 1721.7 1336 1692.5C1391.7 1663.3 1447.3 1627.7 1503 1641.2C1558.7 1654.7 1614.3 1717.3 1670 1737C1725.7 1756.7 1781.3 1733.3 1836.8 1712.2C1892.3 1691 1947.7 1672 2003.2 1648.3C2058.7 1624.7 2114.3 1596.3 2170 1610C2225.7 1623.7 2281.3 1679.3 2337 1702.2C2392.7 1725 2448.3 1715 2504 1686.7C2559.7 1658.3 2615.3 1611.7 2671 1627.5C2726.7 1643.3 2782.3 1721.7 2838 1728.2C2893.7 1734.7 2949.3 1669.3 3005 1645.3C3060.7 1621.3 3116.3 1638.7 3172 1636.5C3227.7 1634.3 3283.3 1612.7 3339 1617C3394.7 1621.3 3450.3 1651.7 3506 1684.2C3561.7 1716.7 3617.3 1751.3 3673 1768.5C3728.7 1785.7 3784.3 1785.3 3812.2 1785.2L3840 1785L3840 2161L3812.2 2161C3784.3 2161 3728.7 2161 3673 2161C3617.3 2161 3561.7 2161 3506 2161C3450.3 2161 3394.7 2161 3339 2161C3283.3 2161 3227.7 2161 3172 2161C3116.3 2161 3060.7 2161 3005 2161C2949.3 2161 2893.7 2161 2838 2161C2782.3 2161 2726.7 2161 2671 2161C2615.3 2161 2559.7 2161 2504 2161C2448.3 2161 2392.7 2161 2337 2161C2281.3 2161 2225.7 2161 2170 2161C2114.3 2161 2058.7 2161 2003.2 2161C1947.7 2161 1892.3 2161 1836.8 2161C1781.3 2161 1725.7 2161 1670 2161C1614.3 2161 1558.7 2161 1503 2161C1447.3 2161 1391.7 2161 1336 2161C1280.3 2161 1224.7 2161 1169 2161C1113.3 2161 1057.7 2161 1002 2161C946.3 2161 890.7 2161 835 2161C779.3 2161 723.7 2161 668 2161C612.3 2161 556.7 2161 501 2161C445.3 2161 389.7 2161 334 2161C278.3 2161 222.7 2161 167 2161C111.3 2161 55.7 2161 27.8 2161L0 2161L0 1636Z" fill="#b8486b" fill-rule="nonzero" opacity="1" stroke="none"/>
<path d="M0 1730L27.8 1716.5C55.7 1703 111.3 1676 167 1695C222.7 1714 278.3 1779 334 1793.3C389.7 1807.7 445.3 1771.3 501 1756.7C556.7 1742 612.3 1749 668 1733C723.7 1717 779.3 1678 835 1687.5C890.7 1697 946.3 1755 1002 1780.7C1057.7 1806.3 1113.3 1799.7 1169 1787.2C1224.7 1774.7 1280.3 1756.3 1336 1746.7C1391.7 1737 1447.3 1736 1503 1751.7C1558.7 1767.3 1614.3 1799.7 1670 1788.5C1725.7 1777.3 1781.3 1722.7 1836.8 1719.8C1892.3 1717 1947.7 1766 2003.2 1781.7C2058.7 1797.3 2114.3 1779.7 2170 1756.3C2225.7 1733 2281.3 1704 2337 1682.2C2392.7 1660.3 2448.3 1645.7 2504 1649.8C2559.7 1654 2615.3 1677 2671 1713C2726.7 1749 2782.3 1798 2838 1789.8C2893.7 1781.7 2949.3 1716.3 3005 1695C3060.7 1673.7 3116.3 1696.3 3172 1728.7C3227.7 1761 3283.3 1803 3339 1788.7C3394.7 1774.3 3450.3 1703.7 3506 1676.7C3561.7 1649.7 3617.3 1666.3 3673 1687.2C3728.7 1708 3784.3 1733 3812.2 1745.5L3840 1758L3840 2161L3812.2 2161C3784.3 2161 3728.7 2161 3673 2161C3617.3 2161 3561.7 2161 3506 2161C3450.3 2161 3394.7 2161 3339 2161C3283.3 2161 3227.7 2161 3172 2161C3116.3 2161 3060.7 2161 3005 2161C2949.3 2161 2893.7 2161 2838 2161C2782.3 2161 2726.7 2161 2671 2161C2615.3 2161 2559.7 2161 2504 2161C2448.3 2161 2392.7 2161 2337 2161C2281.3 2161 2225.7 2161 2170 2161C2114.3 2161 2058.7 2161 2003.2 2161C1947.7 2161 1892.3 2161 1836.8 2161C1781.3 2161 1725.7 2161 1670 2161C1614.3 2161 1558.7 2161 1503 2161C1447.3 2161 1391.7 2161 1336 2161C1280.3 2161 1224.7 2161 1169 2161C1113.3 2161 1057.7 2161 1002 2161C946.3 2161 890.7 2161 835 2161C779.3 2161 723.7 2161 668 2161C612.3 2161 556.7 2161 501 2161C445.3 2161 389.7 2161 334 2161C278.3 2161 222.7 2161 167 2161C111.3 2161 55.7 2161 27.8 2161L0 2161L0 1730Z" fill="#d25464" fill-rule="nonzero" opacity="1" stroke="none"/>
<path d="M0 1811L27.8 1813.7C55.7 1816.3 111.3 1821.7 167 1817.7C222.7 1813.7 278.3 1800.3 334 1798.8C389.7 1797.3 445.3 1807.7 501 1810.5C556.7 1813.3 612.3 1808.7 668 1816.7C723.7 1824.7 779.3 1845.3 835 1835.8C890.7 1826.3 946.3 1786.7 1002 1763.8C1057.7 1741 1113.3 1735 1169 1761.5C1224.7 1788 1280.3 1847 1336 1879.5C1391.7 1912 1447.3 1918 1503 1901.2C1558.7 1884.3 1614.3 1844.7 1670 1812.5C1725.7 1780.3 1781.3 1755.7 1836.8 1749.7C1892.3 1743.7 1947.7 1756.3 2003.2 1760.7C2058.7 1765 2114.3 1761 2170 1771C2225.7 1781 2281.3 1805 2337 1827C2392.7 1849 2448.3 1869 2504 1883.2C2559.7 1897.3 2615.3 1905.7 2671 1911.8C2726.7 1918 2782.3 1922 2838 1921.2C2893.7 1920.3 2949.3 1914.7 3005 1892.2C3060.7 1869.7 3116.3 1830.3 3172 1822.3C3227.7 1814.3 3283.3 1837.7 3339 1851.7C3394.7 1865.7 3450.3 1870.3 3506 1849.3C3561.7 1828.3 3617.3 1781.7 3673 1771C3728.7 1760.3 3784.3 1785.7 3812.2 1798.3L3840 1811L3840 2161L3812.2 2161C3784.3 2161 3728.7 2161 3673 2161C3617.3 2161 3561.7 2161 3506 2161C3450.3 2161 3394.7 2161 3339 2161C3283.3 2161 3227.7 2161 3172 2161C3116.3 2161 3060.7 2161 3005 2161C2949.3 2161 2893.7 2161 2838 2161C2782.3 2161 2726.7 2161 2671 2161C2615.3 2161 2559.7 2161 2504 2161C2448.3 2161 2392.7 2161 2337 2161C2281.3 2161 2225.7 2161 2170 2161C2114.3 2161 2058.7 2161 2003.2 2161C1947.7 2161 1892.3 2161 1836.8 2161C1781.3 2161 1725.7 2161 1670 2161C1614.3 2161 1558.7 2161 1503 2161C1447.3 2161 1391.7 2161 1336 2161C1280.3 2161 1224.7 2161 1169 2161C1113.3 2161 1057.7 2161 1002 2161C946.3 2161 890.7 2161 835 2161C779.3 2161 723.7 2161 668 2161C612.3 2161 556.7 2161 501 2161C445.3 2161 389.7 2161 334 2161C278.3 2161 222.7 2161 167 2161C111.3 2161 55.7 2161 27.8 2161L0 2161L0 1811Z" fill="#e7645a" fill-rule="nonzero" opacity="1" stroke="none"/>
<path d="M0 1930L27.8 1919.5C55.7 1909 111.3 1888 167 1894C222.7 1900 278.3 1933 334 1933.3C389.7 1933.7 445.3 1901.3 501 1892.3C556.7 1883.3 612.3 1897.7 668 1910.2C723.7 1922.7 779.3 1933.3 835 1942.7C890.7 1952 946.3 1960 1002 1966.2C1057.7 1972.3 1113.3 1976.7 1169 1975.3C1224.7 1974 1280.3 1967 1336 1967.3C1391.7 1967.7 1447.3 1975.3 1503 1961.8C1558.7 1948.3 1614.3 1913.7 1670 1889C1725.7 1864.3 1781.3 1849.7 1836.8 1856.7C1892.3 1863.7 1947.7 1892.3 2003.2 1905.5C2058.7 1918.7 2114.3 1916.3 2170 1904.5C2225.7 1892.7 2281.3 1871.3 2337 1876.5C2392.7 1881.7 2448.3 1913.3 2504 1921.3C2559.7 1929.3 2615.3 1913.7 2671 1901.8C2726.7 1890 2782.3 1882 2838 1893.3C2893.7 1904.7 2949.3 1935.3 3005 1948.8C3060.7 1962.3 3116.3 1958.7 3172 1960.8C3227.7 1963 3283.3 1971 3339 1964.3C3394.7 1957.7 3450.3 1936.3 3506 1925.3C3561.7 1914.3 3617.3 1913.7 3673 1913.8C3728.7 1914 3784.3 1915 3812.2 1915.5L3840 1916L3840 2161L3812.2 2161C3784.3 2161 3728.7 2161 3673 2161C3617.3 2161 3561.7 2161 3506 2161C3450.3 2161 3394.7 2161 3339 2161C3283.3 2161 3227.7 2161 3172 2161C3116.3 2161 3060.7 2161 3005 2161C2949.3 2161 2893.7 2161 2838 2161C2782.3 2161 2726.7 2161 2671 2161C2615.3 2161 2559.7 2161 2504 2161C2448.3 2161 2392.7 2161 2337 2161C2281.3 2161 2225.7 2161 2170 2161C2114.3 2161 2058.7 2161 2003.2 2161C1947.7 2161 1892.3 2161 1836.8 2161C1781.3 2161 1725.7 2161 1670 2161C1614.3 2161 1558.7 2161 1503 2161C1447.3 2161 1391.7 2161 1336 2161C1280.3 2161 1224.7 2161 1169 2161C1113.3 2161 1057.7 2161 1002 2161C946.3 2161 890.7 2161 835 2161C779.3 2161 723.7 2161 668 2161C612.3 2161 556.7 2161 501 2161C445.3 2161 389.7 2161 334 2161C278.3 2161 222.7 2161 167 2161C111.3 2161 55.7 2161 27.8 2161L0 2161L0 1930Z" fill="#e67b55" fill-rule="nonzero" opacity="1" stroke="none"/>
<path d="M0 1966L27.8 1974.7C55.7 1983.3 111.3 2000.7 167 2009C222.7 2017.3 278.3 2016.7 334 2005.3C389.7 1994 445.3 1972 501 1973.5C556.7 1975 612.3 2000 668 2009C723.7 2018 779.3 2011 835 1999.5C890.7 1988 946.3 1972 1002 1972.8C1057.7 1973.7 1113.3 1991.3 1169 2001.5C1224.7 2011.7 1280.3 2014.3 1336 2007.8C1391.7 2001.3 1447.3 1985.7 1503 1982.3C1558.7 1979 1614.3 1988 1670 1994.7C1725.7 2001.3 1781.3 2005.7 1836.8 2006.5C1892.3 2007.3 1947.7 2004.7 2003.2 2008.7C2058.7 2012.7 2114.3 2023.3 2170 2026.3C2225.7 2029.3 2281.3 2024.7 2337 2011C2392.7 1997.3 2448.3 1974.7 2504 1965.5C2559.7 1956.3 2615.3 1960.7 2671 1966.5C2726.7 1972.3 2782.3 1979.7 2838 1982.3C2893.7 1985 2949.3 1983 3005 1980.5C3060.7 1978 3116.3 1975 3172 1979.7C3227.7 1984.3 3283.3 1996.7 3339 2000.8C3394.7 2005 3450.3 2001 3506 2004.7C3561.7 2008.3 3617.3 2019.7 3673 2021.3C3728.7 2023 3784.3 2015 3812.2 2011L3840 2007L3840 2161L3812.2 2161C3784.3 2161 3728.7 2161 3673 2161C3617.3 2161 3561.7 2161 3506 2161C3450.3 2161 3394.7 2161 3339 2161C3283.3 2161 3227.7 2161 3172 2161C3116.3 2161 3060.7 2161 3005 2161C2949.3 2161 2893.7 2161 2838 2161C2782.3 2161 2726.7 2161 2671 2161C2615.3 2161 2559.7 2161 2504 2161C2448.3 2161 2392.7 2161 2337 2161C2281.3 2161 2225.7 2161 2170 2161C2114.3 2161 2058.7 2161 2003.2 2161C1947.7 2161 1892.3 2161 1836.8 2161C1781.3 2161 1725.7 2161 1670 2161C1614.3 2161 1558.7 2161 1503 2161C1447.3 2161 1391.7 2161 1336 2161C1280.3 2161 1224.7 2161 1169 2161C1113.3 2161 1057.7 2161 1002 2161C946.3 2161 890.7 2161 835 2161C779.3 2161 723.7 2161 668 2161C612.3 2161 556.7 2161 501 2161C445.3 2161 389.7 2161 334 2161C278.3 2161 222.7 2161 167 2161C111.3 2161 55.7 2161 27.8 2161L0 2161L0 1966Z" fill="#e89459" fill-rule="nonzero" opacity="1" stroke="none"/>
</g>
<g id="Layer-1">
<path d="M0 435L27.8 433.2C55.7 431.3 111.3 427.7 167 470.7C222.7 513.7 278.3 603.3 334 613C389.7 622.7 445.3 552.3 501 505.5C556.7 458.7 612.3 435.3 668 463.5C723.7 491.7 779.3 571.3 835 578.7C890.7 586 946.3 521 1002 503.8C1057.7 486.7 1113.3 517.3 1169 530.2C1224.7 543 1280.3 538 1336 559.7C1391.7 581.3 1447.3 629.7 1503 614.2C1558.7 598.7 1614.3 519.3 1670 522.2C1725.7 525 1781.3 610 1836.8 604C1892.3 598 1947.7 501 2003.2 474C2058.7 447 2114.3 490 2170 524.5C2225.7 559 2281.3 585 2337 572.7C2392.7 560.3 2448.3 509.7 2504 510.3C2559.7 511 2615.3 563 2671 573.3C2726.7 583.7 2782.3 552.3 2838 566.2C2893.7 580 2949.3 639 3005 623C3060.7 607 3116.3 516 3172 463.5C3227.7 411 3283.3 397 3339 431.2C3394.7 465.3 3450.3 547.7 3506 547.3C3561.7 547 3617.3 464 3673 437.8C3728.7 411.7 3784.3 442.3 3812.2 457.7L3840 473L3840 0L3812.2 0C3784.3 0 3728.7 0 3673 0C3617.3 0 3561.7 0 3506 0C3450.3 0 3394.7 0 3339 0C3283.3 0 3227.7 0 3172 0C3116.3 0 3060.7 0 3005 0C2949.3 0 2893.7 0 2838 0C2782.3 0 2726.7 0 2671 0C2615.3 0 2559.7 0 2504 0C2448.3 0 2392.7 0 2337 0C2281.3 0 2225.7 0 2170 0C2114.3 0 2058.7 0 2003.2 0C1947.7 0 1892.3 0 1836.8 0C1781.3 0 1725.7 0 1670 0C1614.3 0 1558.7 0 1503 0C1447.3 0 1391.7 0 1336 0C1280.3 0 1224.7 0 1169 0C1113.3 0 1057.7 0 1002 0C946.3 0 890.7 0 835 0C779.3 0 723.7 0 668 0C612.3 0 556.7 0 501 0C445.3 0 389.7 0 334 0C278.3 0 222.7 0 167 0C111.3 0 55.7 0 27.8 0L0 0L0 435Z" fill="#001122" fill-rule="nonzero" opacity="1" stroke="none"/>
<path d="M0 467L27.8 491.7C55.7 516.3 111.3 565.7 167 587.2C222.7 608.7 278.3 602.3 334 601.2C389.7 600 445.3 604 501 565.7C556.7 527.3 612.3 446.7 668 429.3C723.7 412 779.3 458 835 472.2C890.7 486.3 946.3 468.7 1002 481.5C1057.7 494.3 1113.3 537.7 1169 534C1224.7 530.3 1280.3 479.7 1336 444.5C1391.7 409.3 1447.3 389.7 1503 411C1558.7 432.3 1614.3 494.7 1670 521.3C1725.7 548 1781.3 539 1836.8 543.3C1892.3 547.7 1947.7 565.3 2003.2 556.5C2058.7 547.7 2114.3 512.3 2170 514.7C2225.7 517 2281.3 557 2337 564C2392.7 571 2448.3 545 2504 530C2559.7 515 2615.3 511 2671 487C2726.7 463 2782.3 419 2838 432.2C2893.7 445.3 2949.3 515.7 3005 559.3C3060.7 603 3116.3 620 3172 584.7C3227.7 549.3 3283.3 461.7 3339 439.5C3394.7 417.3 3450.3 460.7 3506 499.2C3561.7 537.7 3617.3 571.3 3673 563.2C3728.7 555 3784.3 505 3812.2 480L3840 455L3840 0L3812.2 0C3784.3 0 3728.7 0 3673 0C3617.3 0 3561.7 0 3506 0C3450.3 0 3394.7 0 3339 0C3283.3 0 3227.7 0 3172 0C3116.3 0 3060.7 0 3005 0C2949.3 0 2893.7 0 2838 0C2782.3 0 2726.7 0 2671 0C2615.3 0 2559.7 0 2504 0C2448.3 0 2392.7 0 2337 0C2281.3 0 2225.7 0 2170 0C2114.3 0 2058.7 0 2003.2 0C1947.7 0 1892.3 0 1836.8 0C1781.3 0 1725.7 0 1670 0C1614.3 0 1558.7 0 1503 0C1447.3 0 1391.7 0 1336 0C1280.3 0 1224.7 0 1169 0C1113.3 0 1057.7 0 1002 0C946.3 0 890.7 0 835 0C779.3 0 723.7 0 668 0C612.3 0 556.7 0 501 0C445.3 0 389.7 0 334 0C278.3 0 222.7 0 167 0C111.3 0 55.7 0 27.8 0L0 0L0 467Z" fill="#111c35" fill-rule="nonzero" opacity="1" stroke="none"/>
<path d="M0 327L27.8 338.7C55.7 350.3 111.3 373.7 167 410.2C222.7 446.7 278.3 496.3 334 517C389.7 537.7 445.3 529.3 501 493.8C556.7 458.3 612.3 395.7 668 364.8C723.7 334 779.3 335 835 371.3C890.7 407.7 946.3 479.3 1002 495.2C1057.7 511 1113.3 471 1169 454.5C1224.7 438 1280.3 445 1336 466.7C1391.7 488.3 1447.3 524.7 1503 541.7C1558.7 558.7 1614.3 556.3 1670 534.5C1725.7 512.7 1781.3 471.3 1836.8 443.5C1892.3 415.7 1947.7 401.3 2003.2 396C2058.7 390.7 2114.3 394.3 2170 403.7C2225.7 413 2281.3 428 2337 431.2C2392.7 434.3 2448.3 425.7 2504 441.5C2559.7 457.3 2615.3 497.7 2671 509.3C2726.7 521 2782.3 504 2838 484.8C2893.7 465.7 2949.3 444.3 3005 457C3060.7 469.7 3116.3 516.3 3172 530C3227.7 543.7 3283.3 524.3 3339 507.5C3394.7 490.7 3450.3 476.3 3506 467C3561.7 457.7 3617.3 453.3 3673 467.2C3728.7 481 3784.3 513 3812.2 529L3840 545L3840 0L3812.2 0C3784.3 0 3728.7 0 3673 0C3617.3 0 3561.7 0 3506 0C3450.3 0 3394.7 0 3339 0C3283.3 0 3227.7 0 3172 0C3116.3 0 3060.7 0 3005 0C2949.3 0 2893.7 0 2838 0C2782.3 0 2726.7 0 2671 0C2615.3 0 2559.7 0 2504 0C2448.3 0 2392.7 0 2337 0C2281.3 0 2225.7 0 2170 0C2114.3 0 2058.7 0 2003.2 0C1947.7 0 1892.3 0 1836.8 0C1781.3 0 1725.7 0 1670 0C1614.3 0 1558.7 0 1503 0C1447.3 0 1391.7 0 1336 0C1280.3 0 1224.7 0 1169 0C1113.3 0 1057.7 0 1002 0C946.3 0 890.7 0 835 0C779.3 0 723.7 0 668 0C612.3 0 556.7 0 501 0C445.3 0 389.7 0 334 0C278.3 0 222.7 0 167 0C111.3 0 55.7 0 27.8 0L0 0L0 327Z" fill="#272647" fill-rule="nonzero" opacity="1" stroke="none"/>
<path d="M0 459L27.8 450.8C55.7 442.7 111.3 426.3 167 430.5C222.7 434.7 278.3 459.3 334 442.5C389.7 425.7 445.3 367.3 501 335.7C556.7 304 612.3 299 668 328C723.7 357 779.3 420 835 445.8C890.7 471.7 946.3 460.3 1002 451.3C1057.7 442.3 1113.3 435.7 1169 419.7C1224.7 403.7 1280.3 378.3 1336 362.8C1391.7 347.3 1447.3 341.7 1503 334.5C1558.7 327.3 1614.3 318.7 1670 314.7C1725.7 310.7 1781.3 311.3 1836.8 314C1892.3 316.7 1947.7 321.3 2003.2 348.2C2058.7 375 2114.3 424 2170 454.8C2225.7 485.7 2281.3 498.3 2337 478.2C2392.7 458 2448.3 405 2504 386.5C2559.7 368 2615.3 384 2671 373.8C2726.7 363.7 2782.3 327.3 2838 317.5C2893.7 307.7 2949.3 324.3 3005 352.7C3060.7 381 3116.3 421 3172 426C3227.7 431 3283.3 401 3339 407.8C3394.7 414.7 3450.3 458.3 3506 451.5C3561.7 444.7 3617.3 387.3 3673 367.2C3728.7 347 3784.3 364 3812.2 372.5L3840 381L3840 0L3812.2 0C3784.3 0 3728.7 0 3673 0C3617.3 0 3561.7 0 3506 0C3450.3 0 3394.7 0 3339 0C3283.3 0 3227.7 0 3172 0C3116.3 0 3060.7 0 3005 0C2949.3 0 2893.7 0 2838 0C2782.3 0 2726.7 0 2671 0C2615.3 0 2559.7 0 2504 0C2448.3 0 2392.7 0 2337 0C2281.3 0 2225.7 0 2170 0C2114.3 0 2058.7 0 2003.2 0C1947.7 0 1892.3 0 1836.8 0C1781.3 0 1725.7 0 1670 0C1614.3 0 1558.7 0 1503 0C1447.3 0 1391.7 0 1336 0C1280.3 0 1224.7 0 1169 0C1113.3 0 1057.7 0 1002 0C946.3 0 890.7 0 835 0C779.3 0 723.7 0 668 0C612.3 0 556.7 0 501 0C445.3 0 389.7 0 334 0C278.3 0 222.7 0 167 0C111.3 0 55.7 0 27.8 0L0 0L0 459Z" fill="#412e57" fill-rule="nonzero" opacity="1" stroke="none"/>
<path d="M0 425L27.8 425.7C55.7 426.3 111.3 427.7 167 402C222.7 376.3 278.3 323.7 334 296.2C389.7 268.7 445.3 266.3 501 299.8C556.7 333.3 612.3 402.7 668 425.2C723.7 447.7 779.3 423.3 835 400.2C890.7 377 946.3 355 1002 353.2C1057.7 351.3 1113.3 369.7 1169 363.8C1224.7 358 1280.3 328 1336 326.2C1391.7 324.3 1447.3 350.7 1503 369.8C1558.7 389 1614.3 401 1670 401.8C1725.7 402.7 1781.3 392.3 1836.8 400.7C1892.3 409 1947.7 436 2003.2 430.7C2058.7 425.3 2114.3 387.7 2170 368.5C2225.7 349.3 2281.3 348.7 2337 346.2C2392.7 343.7 2448.3 339.3 2504 326C2559.7 312.7 2615.3 290.3 2671 278.2C2726.7 266 2782.3 264 2838 296.2C2893.7 328.3 2949.3 394.7 3005 410.7C3060.7 426.7 3116.3 392.3 3172 365.5C3227.7 338.7 3283.3 319.3 3339 327.3C3394.7 335.3 3450.3 370.7 3506 367.2C3561.7 363.7 3617.3 321.3 3673 324C3728.7 326.7 3784.3 374.3 3812.2 398.2L3840 422L3840 0L3812.2 0C3784.3 0 3728.7 0 3673 0C3617.3 0 3561.7 0 3506 0C3450.3 0 3394.7 0 3339 0C3283.3 0 3227.7 0 3172 0C3116.3 0 3060.7 0 3005 0C2949.3 0 2893.7 0 2838 0C2782.3 0 2726.7 0 2671 0C2615.3 0 2559.7 0 2504 0C2448.3 0 2392.7 0 2337 0C2281.3 0 2225.7 0 2170 0C2114.3 0 2058.7 0 2003.2 0C1947.7 0 1892.3 0 1836.8 0C1781.3 0 1725.7 0 1670 0C1614.3 0 1558.7 0 1503 0C1447.3 0 1391.7 0 1336 0C1280.3 0 1224.7 0 1169 0C1113.3 0 1057.7 0 1002 0C946.3 0 890.7 0 835 0C779.3 0 723.7 0 668 0C612.3 0 556.7 0 501 0C445.3 0 389.7 0 334 0C278.3 0 222.7 0 167 0C111.3 0 55.7 0 27.8 0L0 0L0 425Z" fill="#5e3463" fill-rule="nonzero" opacity="1" stroke="none"/>
<path d="M0 393L27.8 388.2C55.7 383.3 111.3 373.7 167 369.2C222.7 364.7 278.3 365.3 334 362.7C389.7 360 445.3 354 501 343C556.7 332 612.3 316 668 317.7C723.7 319.3 779.3 338.7 835 352.8C890.7 367 946.3 376 1002 379C1057.7 382 1113.3 379 1169 374.2C1224.7 369.3 1280.3 362.7 1336 363.8C1391.7 365 1447.3 374 1503 368.7C1558.7 363.3 1614.3 343.7 1670 338.3C1725.7 333 1781.3 342 1836.8 357.8C1892.3 373.7 1947.7 396.3 2003.2 386.7C2058.7 377 2114.3 335 2170 308.5C2225.7 282 2281.3 271 2337 272.8C2392.7 274.7 2448.3 289.3 2504 316.3C2559.7 343.3 2615.3 382.7 2671 388.3C2726.7 394 2782.3 366 2838 362.2C2893.7 358.3 2949.3 378.7 3005 391.7C3060.7 404.7 3116.3 410.3 3172 406.7C3227.7 403 3283.3 390 3339 375.2C3394.7 360.3 3450.3 343.7 3506 345.3C3561.7 347 3617.3 367 3673 364.8C3728.7 362.7 3784.3 338.3 3812.2 326.2L3840 314L3840 0L3812.2 0C3784.3 0 3728.7 0 3673 0C3617.3 0 3561.7 0 3506 0C3450.3 0 3394.7 0 3339 0C3283.3 0 3227.7 0 3172 0C3116.3 0 3060.7 0 3005 0C2949.3 0 2893.7 0 2838 0C2782.3 0 2726.7 0 2671 0C2615.3 0 2559.7 0 2504 0C2448.3 0 2392.7 0 2337 0C2281.3 0 2225.7 0 2170 0C2114.3 0 2058.7 0 2003.2 0C1947.7 0 1892.3 0 1836.8 0C1781.3 0 1725.7 0 1670 0C1614.3 0 1558.7 0 1503 0C1447.3 0 1391.7 0 1336 0C1280.3 0 1224.7 0 1169 0C1113.3 0 1057.7 0 1002 0C946.3 0 890.7 0 835 0C779.3 0 723.7 0 668 0C612.3 0 556.7 0 501 0C445.3 0 389.7 0 334 0C278.3 0 222.7 0 167 0C111.3 0 55.7 0 27.8 0L0 0L0 393Z" fill="#7d3a6a" fill-rule="nonzero" opacity="1" stroke="none"/>
<path d="M0 358L27.8 336.7C55.7 315.3 111.3 272.7 167 268.3C222.7 264 278.3 298 334 294.5C389.7 291 445.3 250 501 228.5C556.7 207 612.3 205 668 208.5C723.7 212 779.3 221 835 223.5C890.7 226 946.3 222 1002 223.3C1057.7 224.7 1113.3 231.3 1169 257.2C1224.7 283 1280.3 328 1336 345.7C1391.7 363.3 1447.3 353.7 1503 335.8C1558.7 318 1614.3 292 1670 268.7C1725.7 245.3 1781.3 224.7 1836.8 214.7C1892.3 204.7 1947.7 205.3 2003.2 205.7C2058.7 206 2114.3 206 2170 229.5C2225.7 253 2281.3 300 2337 319.8C2392.7 339.7 2448.3 332.3 2504 330.5C2559.7 328.7 2615.3 332.3 2671 332.5C2726.7 332.7 2782.3 329.3 2838 329.5C2893.7 329.7 2949.3 333.3 3005 327C3060.7 320.7 3116.3 304.3 3172 290C3227.7 275.7 3283.3 263.3 3339 267.7C3394.7 272 3450.3 293 3506 309.3C3561.7 325.7 3617.3 337.3 3673 321.8C3728.7 306.3 3784.3 263.7 3812.2 242.3L3840 221L3840 0L3812.2 0C3784.3 0 3728.7 0 3673 0C3617.3 0 3561.7 0 3506 0C3450.3 0 3394.7 0 3339 0C3283.3 0 3227.7 0 3172 0C3116.3 0 3060.7 0 3005 0C2949.3 0 2893.7 0 2838 0C2782.3 0 2726.7 0 2671 0C2615.3 0 2559.7 0 2504 0C2448.3 0 2392.7 0 2337 0C2281.3 0 2225.7 0 2170 0C2114.3 0 2058.7 0 2003.2 0C1947.7 0 1892.3 0 1836.8 0C1781.3 0 1725.7 0 1670 0C1614.3 0 1558.7 0 1503 0C1447.3 0 1391.7 0 1336 0C1280.3 0 1224.7 0 1169 0C1113.3 0 1057.7 0 1002 0C946.3 0 890.7 0 835 0C779.3 0 723.7 0 668 0C612.3 0 556.7 0 501 0C445.3 0 389.7 0 334 0C278.3 0 222.7 0 167 0C111.3 0 55.7 0 27.8 0L0 0L0 358Z" fill="#9b406d" fill-rule="nonzero" opacity="1" stroke="none"/>
<path d="M0 319L27.8 303.8C55.7 288.7 111.3 258.3 167 236C222.7 213.7 278.3 199.3 334 209.8C389.7 220.3 445.3 255.7 501 270.5C556.7 285.3 612.3 279.7 668 267.5C723.7 255.3 779.3 236.7 835 239.2C890.7 241.7 946.3 265.3 1002 260.8C1057.7 256.3 1113.3 223.7 1169 207.2C1224.7 190.7 1280.3 190.3 1336 212C1391.7 233.7 1447.3 277.3 1503 281C1558.7 284.7 1614.3 248.3 1670 247.8C1725.7 247.3 1781.3 282.7 1836.8 286C1892.3 289.3 1947.7 260.7 2003.2 252.5C2058.7 244.3 2114.3 256.7 2170 266.2C2225.7 275.7 2281.3 282.3 2337 280.8C2392.7 279.3 2448.3 269.7 2504 258.2C2559.7 246.7 2615.3 233.3 2671 221.5C2726.7 209.7 2782.3 199.3 2838 213.3C2893.7 227.3 2949.3 265.7 3005 278C3060.7 290.3 3116.3 276.7 3172 268C3227.7 259.3 3283.3 255.7 3339 264.2C3394.7 272.7 3450.3 293.3 3506 281.3C3561.7 269.3 3617.3 224.7 3673 225.7C3728.7 226.7 3784.3 273.3 3812.2 296.7L3840 320L3840 0L3812.2 0C3784.3 0 3728.7 0 3673 0C3617.3 0 3561.7 0 3506 0C3450.3 0 3394.7 0 3339 0C3283.3 0 3227.7 0 3172 0C3116.3 0 3060.7 0 3005 0C2949.3 0 2893.7 0 2838 0C2782.3 0 2726.7 0 2671 0C2615.3 0 2559.7 0 2504 0C2448.3 0 2392.7 0 2337 0C2281.3 0 2225.7 0 2170 0C2114.3 0 2058.7 0 2003.2 0C1947.7 0 1892.3 0 1836.8 0C1781.3 0 1725.7 0 1670 0C1614.3 0 1558.7 0 1503 0C1447.3 0 1391.7 0 1336 0C1280.3 0 1224.7 0 1169 0C1113.3 0 1057.7 0 1002 0C946.3 0 890.7 0 835 0C779.3 0 723.7 0 668 0C612.3 0 556.7 0 501 0C445.3 0 389.7 0 334 0C278.3 0 222.7 0 167 0C111.3 0 55.7 0 27.8 0L0 0L0 319Z" fill="#b8486b" fill-rule="nonzero" opacity="1" stroke="none"/>
<path d="M0 181L27.8 190.2C55.7 199.3 111.3 217.7 167 217C222.7 216.3 278.3 196.7 334 200.2C389.7 203.7 445.3 230.3 501 235.3C556.7 240.3 612.3 223.7 668 209.7C723.7 195.7 779.3 184.3 835 177.2C890.7 170 946.3 167 1002 167.3C1057.7 167.7 1113.3 171.3 1169 186.7C1224.7 202 1280.3 229 1336 226.2C1391.7 223.3 1447.3 190.7 1503 175.2C1558.7 159.7 1614.3 161.3 1670 168.3C1725.7 175.3 1781.3 187.7 1836.8 204.7C1892.3 221.7 1947.7 243.3 2003.2 246.8C2058.7 250.3 2114.3 235.7 2170 234.2C2225.7 232.7 2281.3 244.3 2337 243C2392.7 241.7 2448.3 227.3 2504 211.2C2559.7 195 2615.3 177 2671 178.8C2726.7 180.7 2782.3 202.3 2838 202C2893.7 201.7 2949.3 179.3 3005 179.2C3060.7 179 3116.3 201 3172 201.5C3227.7 202 3283.3 181 3339 184.2C3394.7 187.3 3450.3 214.7 3506 231.3C3561.7 248 3617.3 254 3673 241.8C3728.7 229.7 3784.3 199.3 3812.2 184.2L3840 169L3840 0L3812.2 0C3784.3 0 3728.7 0 3673 0C3617.3 0 3561.7 0 3506 0C3450.3 0 3394.7 0 3339 0C3283.3 0 3227.7 0 3172 0C3116.3 0 3060.7 0 3005 0C2949.3 0 2893.7 0 2838 0C2782.3 0 2726.7 0 2671 0C2615.3 0 2559.7 0 2504 0C2448.3 0 2392.7 0 2337 0C2281.3 0 2225.7 0 2170 0C2114.3 0 2058.7 0 2003.2 0C1947.7 0 1892.3 0 1836.8 0C1781.3 0 1725.7 0 1670 0C1614.3 0 1558.7 0 1503 0C1447.3 0 1391.7 0 1336 0C1280.3 0 1224.7 0 1169 0C1113.3 0 1057.7 0 1002 0C946.3 0 890.7 0 835 0C779.3 0 723.7 0 668 0C612.3 0 556.7 0 501 0C445.3 0 389.7 0 334 0C278.3 0 222.7 0 167 0C111.3 0 55.7 0 27.8 0L0 0L0 181Z" fill="#d25464" fill-rule="nonzero" opacity="1" stroke="none"/>
<path d="M0 200L27.8 199.3C55.7 198.7 111.3 197.3 167 193.5C222.7 189.7 278.3 183.3 334 179C389.7 174.7 445.3 172.3 501 175.5C556.7 178.7 612.3 187.3 668 185C723.7 182.7 779.3 169.3 835 167C890.7 164.7 946.3 173.3 1002 177.7C1057.7 182 1113.3 182 1169 186.2C1224.7 190.3 1280.3 198.7 1336 199.8C1391.7 201 1447.3 195 1503 180.8C1558.7 166.7 1614.3 144.3 1670 146.3C1725.7 148.3 1781.3 174.7 1836.8 189.3C1892.3 204 1947.7 207 2003.2 199.2C2058.7 191.3 2114.3 172.7 2170 162C2225.7 151.3 2281.3 148.7 2337 156.3C2392.7 164 2448.3 182 2504 189.8C2559.7 197.7 2615.3 195.3 2671 191.2C2726.7 187 2782.3 181 2838 171C2893.7 161 2949.3 147 3005 142.2C3060.7 137.3 3116.3 141.7 3172 154.5C3227.7 167.3 3283.3 188.7 3339 193.5C3394.7 198.3 3450.3 186.7 3506 184.8C3561.7 183 3617.3 191 3673 192.7C3728.7 194.3 3784.3 189.7 3812.2 187.3L3840 185L3840 0L3812.2 0C3784.3 0 3728.7 0 3673 0C3617.3 0 3561.7 0 3506 0C3450.3 0 3394.7 0 3339 0C3283.3 0 3227.7 0 3172 0C3116.3 0 3060.7 0 3005 0C2949.3 0 2893.7 0 2838 0C2782.3 0 2726.7 0 2671 0C2615.3 0 2559.7 0 2504 0C2448.3 0 2392.7 0 2337 0C2281.3 0 2225.7 0 2170 0C2114.3 0 2058.7 0 2003.2 0C1947.7 0 1892.3 0 1836.8 0C1781.3 0 1725.7 0 1670 0C1614.3 0 1558.7 0 1503 0C1447.3 0 1391.7 0 1336 0C1280.3 0 1224.7 0 1169 0C1113.3 0 1057.7 0 1002 0C946.3 0 890.7 0 835 0C779.3 0 723.7 0 668 0C612.3 0 556.7 0 501 0C445.3 0 389.7 0 334 0C278.3 0 222.7 0 167 0C111.3 0 55.7 0 27.8 0L0 0L0 200Z" fill="#e7645a" fill-rule="nonzero" opacity="1" stroke="none"/>
<path d="M0 137L27.8 135.7C55.7 134.3 111.3 131.7 167 133C222.7 134.3 278.3 139.7 334 144.3C389.7 149 445.3 153 501 147.7C556.7 142.3 612.3 127.7 668 122.5C723.7 117.3 779.3 121.7 835 126.5C890.7 131.3 946.3 136.7 1002 132.3C1057.7 128 1113.3 114 1169 115.3C1224.7 116.7 1280.3 133.3 1336 131.8C1391.7 130.3 1447.3 110.7 1503 110.3C1558.7 110 1614.3 129 1670 139.2C1725.7 149.3 1781.3 150.7 1836.8 141C1892.3 131.3 1947.7 110.7 2003.2 103.2C2058.7 95.7 2114.3 101.3 2170 105C2225.7 108.7 2281.3 110.3 2337 110.3C2392.7 110.3 2448.3 108.7 2504 109C2559.7 109.3 2615.3 111.7 2671 110.2C2726.7 108.7 2782.3 103.3 2838 106.7C2893.7 110 2949.3 122 3005 120.8C3060.7 119.7 3116.3 105.3 3172 98.8C3227.7 92.3 3283.3 93.7 3339 99.8C3394.7 106 3450.3 117 3506 122.2C3561.7 127.3 3617.3 126.7 3673 128.3C3728.7 130 3784.3 134 3812.2 136L3840 138L3840 0L3812.2 0C3784.3 0 3728.7 0 3673 0C3617.3 0 3561.7 0 3506 0C3450.3 0 3394.7 0 3339 0C3283.3 0 3227.7 0 3172 0C3116.3 0 3060.7 0 3005 0C2949.3 0 2893.7 0 2838 0C2782.3 0 2726.7 0 2671 0C2615.3 0 2559.7 0 2504 0C2448.3 0 2392.7 0 2337 0C2281.3 0 2225.7 0 2170 0C2114.3 0 2058.7 0 2003.2 0C1947.7 0 1892.3 0 1836.8 0C1781.3 0 1725.7 0 1670 0C1614.3 0 1558.7 0 1503 0C1447.3 0 1391.7 0 1336 0C1280.3 0 1224.7 0 1169 0C1113.3 0 1057.7 0 1002 0C946.3 0 890.7 0 835 0C779.3 0 723.7 0 668 0C612.3 0 556.7 0 501 0C445.3 0 389.7 0 334 0C278.3 0 222.7 0 167 0C111.3 0 55.7 0 27.8 0L0 0L0 137Z" fill="#f6794e" fill-rule="nonzero" opacity="1" stroke="none"/>
<path d="M0 94L27.8 91.8C55.7 89.7 111.3 85.3 167 82C222.7 78.7 278.3 76.3 334 72.8C389.7 69.3 445.3 64.7 501 67.2C556.7 69.7 612.3 79.3 668 86.5C723.7 93.7 779.3 98.3 835 100.7C890.7 103 946.3 103 1002 101C1057.7 99 1113.3 95 1169 87.8C1224.7 80.7 1280.3 70.3 1336 70.3C1391.7 70.3 1447.3 80.7 1503 84.2C1558.7 87.7 1614.3 84.3 1670 80.7C1725.7 77 1781.3 73 1836.8 77.2C1892.3 81.3 1947.7 93.7 2003.2 93.3C2058.7 93 2114.3 80 2170 77.8C2225.7 75.7 2281.3 84.3 2337 83.5C2392.7 82.7 2448.3 72.3 2504 74.7C2559.7 77 2615.3 92 2671 91.8C2726.7 91.7 2782.3 76.3 2838 71.2C2893.7 66 2949.3 71 3005 73.2C3060.7 75.3 3116.3 74.7 3172 76C3227.7 77.3 3283.3 80.7 3339 83C3394.7 85.3 3450.3 86.7 3506 88.3C3561.7 90 3617.3 92 3673 88C3728.7 84 3784.3 74 3812.2 69L3840 64L3840 0L3812.2 0C3784.3 0 3728.7 0 3673 0C3617.3 0 3561.7 0 3506 0C3450.3 0 3394.7 0 3339 0C3283.3 0 3227.7 0 3172 0C3116.3 0 3060.7 0 3005 0C2949.3 0 2893.7 0 2838 0C2782.3 0 2726.7 0 2671 0C2615.3 0 2559.7 0 2504 0C2448.3 0 2392.7 0 2337 0C2281.3 0 2225.7 0 2170 0C2114.3 0 2058.7 0 2003.2 0C1947.7 0 1892.3 0 1836.8 0C1781.3 0 1725.7 0 1670 0C1614.3 0 1558.7 0 1503 0C1447.3 0 1391.7 0 1336 0C1280.3 0 1224.7 0 1169 0C1113.3 0 1057.7 0 1002 0C946.3 0 890.7 0 835 0C779.3 0 723.7 0 668 0C612.3 0 556.7 0 501 0C445.3 0 389.7 0 334 0C278.3 0 222.7 0 167 0C111.3 0 55.7 0 27.8 0L0 0L0 94Z" fill="#ec9355" fill-rule="nonzero" opacity="1" stroke="none"/>
</g>
</svg>
